<?xml version="1.0" standalone="no"?><!DOCTYPE svg PUBLIC "-//W3C//DTD SVG 1.1//EN" "http://www.w3.org/Graphics/SVG/1.1/DTD/svg11.dtd"><svg t="1502002438380" class="icon" style="" viewBox="0 0 1024 1024" version="1.1" xmlns="http://www.w3.org/2000/svg" p-id="1015" xmlns:xlink="http://www.w3.org/1999/xlink" width="16" height="16"><defs><style type="text/css"></style></defs><path d="M511.99693 1023.950881c-282.755876 0-511.975441-229.219565-511.975441-511.975441S229.240031 0 511.99693 0s511.975441 229.219565 511.975441 511.975441S794.752806 1023.950881 511.99693 1023.950881zM511.99693 77.571726c-239.914138 0-434.403714 194.489576-434.403714 434.403714s194.488553 434.403714 434.403714 434.403714c239.914138 0 434.403714-194.488553 434.403714-434.403714S751.911068 77.571726 511.99693 77.571726zM511.99693 899.835096c-214.20971 0-387.859655-173.650969-387.859655-387.859655s173.650969-387.859655 387.859655-387.859655 387.859655 173.650969 387.859655 387.859655S726.205617 899.835096 511.99693 899.835096z" fill="#ce746c" p-id="1016"></path></svg>